<svg xmlns="http://www.w3.org/2000/svg" xml:space="preserve" width="1772" height="1774"><path fill-rule="evenodd" d="M678.755 1472.738h109.176v-346.947l-243.237 242.543 77.807 77.676-360.491 64.836 64.522-359.279 76.313 76.23 246.698-245.721H305.428v109.727L5.056 882.931c100.035-69.573 199.608-138.825 300.002-208.646v109.16h346.307L408.576 540.658l-76.644 76.798L267.2 257.119l359.054 64.576a3280380.55 3280380.55 0 0 0-76.707 76.826L795.49 644.098V300.717H685.856L894.691 0l208.51 300.238H994.137v345.877l243.219-242.529-77.122-76.53 359.826-64.729-64.438 358.836-76.416-76.436-247.211 246.235h344.589V681.313c100.604 69.959 200.189 139.209 300.435 208.921l-300.068 208.693V989.638h-346.484l242.668 242.514c24.729-24.652 50.287-50.133 76.965-76.73l64.787 360.627-358.413-64.482 76.345-76.371-246.387-245.994v343.322h109.738c-69.895 100.65-139.167 200.408-208.784 300.658l-208.631-300.444zm212.303-384.845c111.286-.012 201.223-90.01 201.194-201.331-.027-111.315-90.03-201.359-201.236-201.331-111.268.029-201.195 90.047-201.174 201.374.021 111.381 89.909 201.301 201.216 201.288z" clip-rule="evenodd"/><path d="M969.535 747.62s137.646 107.648 36.471 262.353c95.293-58.235 103.529-218.383-36.471-262.353zM892.037 732.327c-21.912 24.706-59.559.147-46.617-26.765 22.646 40.587 46.617 7.794 46.617 7.794s23.97 32.793 46.617-7.794c12.942 26.912-24.705 51.47-46.617 26.765z"/><path d="m892.037 1067.619-15.734-20.588s-37.059 12.354-85.883-4.705c40 0 62.354-7.061 70.588-11.178 0 0-90.588-48.822-88.822-148.234 5.293-100.587 58.822-131.175 58.822-131.175s-95.293 138.821 44.705 254.849l-6.176-143.528V757.62c7.941-1.912 22.5-18.676 22.5-18.676s14.559 16.764 22.5 18.676v105.44l-6.177 143.528c139.998-116.027 44.704-254.849 44.704-254.849s53.529 30.588 58.824 131.175c1.765 99.412-88.823 148.234-88.823 148.234 8.235 4.117 30.589 11.178 70.587 11.178-48.822 17.059-85.881 4.705-85.881 4.705l-15.734 20.588z"/><path d="M814.537 747.62s-137.645 107.648-36.469 262.353c-95.294-58.235-103.529-218.383 36.469-262.353z"/></svg>