<?xml version="1.0" standalone="no"?>
<!DOCTYPE svg PUBLIC "-//W3C//DTD SVG 20010904//EN"
 "http://www.w3.org/TR/2001/REC-SVG-20010904/DTD/svg10.dtd">
<svg version="1.0" xmlns="http://www.w3.org/2000/svg"
 width="1000.000000pt" height="1000.000000pt" viewBox="0 0 1000.000000 1000.000000"
 preserveAspectRatio="xMidYMid meet">
<metadata>
Created by potrace 1.14, written by Peter Selinger 2001-2017
</metadata>
<g transform="translate(0.000000,1000.000000) scale(0.100000,-0.100000)"
fill="#000000" stroke="none">
<path d="M0 5000 l0 -5000 5000 0 5000 0 0 5000 0 5000 -5000 0 -5000 0 0
-5000z m6901 2860 c488 -100 859 -472 964 -968 13 -65 15 -347 15 -2423 l0
-2349 -2349 0 c-2563 0 -2390 -4 -2575 56 -424 136 -756 528 -826 976 -8 53
-10 562 -8 1893 l3 1820 28 99 c132 471 492 806 966 901 53 11 427 13 1874 14
1776 1 1811 1 1908 -19z"/>
<path d="M4940 7173 c-8 -3 -30 -21 -47 -39 -29 -29 -35 -43 -32 -70 0 -3 -8
-12 -18 -21 -10 -8 -11 -11 -3 -7 8 4 5 -3 -7 -15 -25 -24 -30 -36 -10 -26 6
4 4 0 -5 -8 -10 -8 -20 -25 -22 -38 -3 -13 -5 -26 -6 -29 -2 -3 -2 -9 -1 -13
1 -5 -2 -6 -7 -3 -12 7 -34 -42 -26 -57 4 -7 4 -9 -1 -5 -8 8 -34 -33 -40 -62
-2 -8 -4 -17 -5 -20 -1 -3 -2 -9 -1 -13 1 -5 -2 -6 -7 -3 -8 5 -52 -88 -52
-111 0 -6 -5 -13 -11 -15 -5 -2 -12 -12 -14 -23 -2 -11 -4 -22 -5 -25 -1 -3
-2 -9 -1 -13 1 -5 -3 -6 -8 -3 -9 6 -38 -52 -33 -66 1 -5 -2 -8 -8 -8 -5 0
-10 -4 -10 -9 0 -5 -5 -22 -12 -38 -6 -15 -11 -31 -10 -35 1 -5 -3 -8 -9 -8
-5 0 -8 -4 -5 -9 4 -5 1 -11 -4 -13 -6 -2 -12 -10 -13 -18 -2 -8 -7 -21 -11
-29 -7 -10 -5 -12 5 -7 8 4 6 1 -4 -7 -10 -9 -20 -22 -21 -30 -1 -8 -8 -23
-16 -33 -13 -16 -13 -17 0 -10 8 4 7 1 -4 -8 -10 -8 -15 -20 -10 -27 5 -8 3
-10 -6 -4 -10 6 -12 4 -7 -9 4 -10 3 -15 -3 -11 -10 6 -13 -3 -13 -37 0 -10
-3 -16 -7 -13 -10 6 -31 -45 -24 -57 5 -7 2 -8 -6 -3 -10 6 -12 4 -7 -9 5 -11
3 -15 -5 -10 -8 5 -9 2 -5 -10 4 -9 3 -15 -2 -12 -11 7 -23 -22 -15 -35 3 -5
0 -9 -6 -9 -6 0 -9 -4 -6 -9 3 -5 -1 -14 -10 -21 -8 -7 -13 -19 -10 -27 3 -8
1 -11 -4 -8 -9 6 -11 1 -14 -37 -1 -7 -8 -21 -16 -31 -8 -10 -14 -21 -13 -25
1 -4 -5 -15 -14 -24 -8 -10 -13 -24 -9 -33 3 -9 2 -14 -3 -11 -5 3 -12 -1 -15
-10 -4 -10 -2 -13 7 -7 6 4 0 -8 -15 -26 -16 -18 -28 -39 -28 -47 0 -9 -11
-35 -25 -58 -14 -25 -23 -50 -19 -60 4 -9 0 -18 -9 -22 -20 -7 -41 -59 -31
-75 4 -8 3 -10 -5 -5 -6 4 -13 0 -17 -11 -3 -10 -10 -26 -15 -37 -8 -14 -8
-16 3 -10 7 4 4 -3 -7 -16 -13 -15 -15 -21 -5 -16 8 4 7 1 -4 -8 -10 -8 -15
-20 -10 -27 4 -7 3 -10 -3 -6 -12 8 -26 -20 -17 -34 3 -5 1 -9 -4 -9 -13 0
-35 -56 -27 -69 3 -6 -1 -14 -9 -17 -13 -5 -41 -68 -38 -84 0 -3 -6 -13 -15
-22 -8 -10 -13 -24 -9 -33 3 -9 2 -14 -2 -11 -4 2 -20 -22 -34 -55 -15 -32
-21 -56 -15 -52 8 5 8 2 0 -9 -7 -8 -9 -19 -5 -23 4 -5 2 -5 -5 -2 -7 5 -16
-7 -24 -30 -6 -21 -14 -42 -18 -48 -3 -5 -6 -17 -6 -26 0 -9 -8 -26 -18 -37
-11 -12 -16 -25 -13 -31 3 -5 1 -11 -5 -13 -6 -2 -12 -15 -12 -30 -1 -14 -4
-24 -6 -22 -7 7 -32 -57 -26 -66 3 -4 -2 -13 -10 -20 -8 -7 -15 -23 -15 -36 0
-12 -5 -26 -10 -29 -6 -4 -7 -11 -4 -17 4 -7 2 -8 -4 -4 -12 7 -15 -1 -15 -36
0 -10 -3 -15 -7 -13 -7 4 -22 -33 -25 -60 0 -5 -6 -20 -13 -32 -7 -13 -9 -23
-5 -23 4 0 2 -4 -5 -9 -8 -5 -15 -20 -15 -34 -1 -14 -6 -23 -11 -19 -5 3 -7
-2 -3 -11 3 -8 0 -21 -8 -27 -7 -6 -12 -18 -11 -28 2 -9 -3 -23 -11 -30 -7 -8
-11 -18 -8 -23 4 -5 1 -9 -5 -9 -7 0 -9 -8 -5 -21 5 -14 4 -19 -4 -15 -6 4 -9
1 -5 -7 3 -8 -2 -20 -10 -27 -9 -7 -13 -17 -10 -22 3 -5 -2 -18 -11 -28 -9
-10 -14 -24 -10 -29 3 -6 2 -11 -4 -11 -5 0 -8 -8 -7 -17 2 -10 -3 -24 -11
-32 -8 -7 -12 -20 -9 -27 3 -8 1 -14 -5 -14 -6 0 -8 -4 -4 -9 3 -5 0 -13 -6
-16 -5 -4 -8 -13 -5 -21 3 -8 1 -14 -4 -14 -5 0 -7 -7 -4 -15 4 -8 1 -15 -7
-15 -7 0 -9 -3 -6 -7 4 -3 2 -12 -4 -19 -6 -8 -9 -21 -5 -29 4 -10 2 -14 -5
-9 -8 4 -9 -1 -4 -16 5 -15 4 -20 -4 -16 -10 7 -15 -8 -14 -41 1 -7 -4 -13
-10 -13 -6 0 -7 -3 -4 -7 4 -3 2 -12 -3 -18 -6 -7 -11 -30 -13 -53 -1 -22 -6
-37 -11 -34 -5 3 -7 -2 -3 -11 4 -10 2 -17 -4 -17 -6 0 -9 -9 -6 -20 3 -12 1
-18 -5 -14 -6 4 -9 -4 -7 -17 2 -13 -2 -34 -9 -46 -7 -12 -13 -39 -14 -60 -2
-21 -7 -41 -11 -44 -5 -3 -9 -29 -10 -57 -1 -27 -5 -48 -9 -46 -4 3 -6 -16 -5
-41 1 -25 0 -45 -3 -45 -8 0 -12 -159 -4 -172 4 -7 9 -22 10 -34 3 -29 34 -75
45 -68 5 3 9 1 9 -5 0 -17 139 -9 150 9 5 8 10 11 10 6 0 -5 7 -2 17 5 9 8 18
13 20 11 8 -6 63 29 58 37 -2 5 3 8 13 7 9 0 16 4 15 11 -2 7 3 10 11 7 8 -3
32 12 55 34 23 21 41 37 41 34 0 -2 7 1 15 8 8 7 12 16 9 21 -3 5 0 8 8 7 7
-2 12 2 11 9 -2 7 3 10 11 7 8 -3 17 0 22 7 5 8 3 10 -6 4 -9 -5 -11 -4 -6 4
4 6 11 9 15 7 10 -7 36 11 36 25 0 7 8 13 18 15 24 3 48 24 41 35 -3 5 1 7 8
4 7 -3 24 5 38 16 14 11 19 17 11 13 -9 -4 -12 -3 -7 4 4 6 12 9 19 6 7 -2 23
5 35 16 12 11 22 18 22 15 0 -4 15 4 33 17 17 13 35 24 40 24 4 1 11 2 16 3 4
0 21 13 36 29 16 15 25 21 20 13 -6 -10 -4 -12 6 -5 8 4 21 9 29 11 8 1 16 7
18 13 2 5 8 8 13 4 5 -3 9 0 9 7 0 7 3 9 7 6 3 -4 15 1 26 10 11 10 17 12 13
6 -5 -9 -2 -11 8 -7 9 3 16 10 16 16 0 5 5 6 11 3 5 -4 20 1 31 12 12 10 18
12 14 6 -5 -9 -2 -11 8 -7 9 3 14 10 11 15 -3 4 4 6 15 4 11 -2 20 0 20 5 0 5
7 6 17 3 12 -5 14 -3 8 7 -6 10 -4 12 7 7 9 -3 19 -3 23 1 3 3 14 7 23 7 9 1
30 2 45 3 16 1 26 5 24 10 -3 4 7 8 21 8 15 1 38 5 52 9 14 4 35 7 48 7 12 0
22 3 22 7 0 4 10 7 23 6 12 -1 27 0 32 4 6 3 36 4 68 3 33 -2 57 0 54 5 -3 4
53 8 124 8 71 0 129 -3 129 -6 0 -3 25 -5 56 -4 30 1 57 -2 59 -6 3 -4 20 -6
40 -4 19 1 32 -2 29 -7 -3 -4 5 -8 18 -9 13 0 30 -2 38 -4 8 -2 51 -13 94 -24
43 -11 82 -19 85 -18 3 1 16 -4 29 -11 12 -7 22 -10 22 -6 0 3 7 1 15 -6 8 -6
18 -9 23 -6 6 3 15 -1 22 -10 7 -8 19 -13 27 -10 7 3 13 0 13 -6 0 -6 3 -9 6
-5 3 3 26 -5 51 -19 25 -13 49 -21 54 -18 5 3 9 0 9 -6 0 -7 7 -10 15 -6 8 3
18 -1 22 -7 13 -22 82 -59 94 -51 7 4 9 3 6 -3 -8 -13 20 -26 35 -16 7 3 8 1
4 -5 -4 -7 -1 -12 8 -12 9 0 16 -4 16 -10 0 -13 56 -41 65 -32 5 4 5 2 2 -4
-7 -13 68 -69 93 -69 8 -1 14 -7 12 -14 -1 -7 7 -15 18 -18 11 -3 20 -10 20
-15 0 -5 5 -6 12 -2 6 4 8 3 5 -3 -6 -9 30 -42 135 -123 15 -12 33 -18 39 -14
7 4 9 3 6 -4 -8 -12 79 -66 93 -57 6 3 10 1 10 -4 0 -6 3 -10 8 -10 4 1 9 0
12 -1 3 -1 33 -3 67 -5 41 -2 60 1 56 8 -3 6 -1 7 6 3 21 -13 58 41 52 77 0 4
4 7 9 7 11 0 7 219 -5 280 -3 19 -7 41 -7 48 -1 6 -4 12 -7 12 -3 0 -7 18 -8
40 0 22 -6 46 -12 54 -6 7 -8 16 -5 19 4 3 3 14 -1 24 -4 10 -9 26 -10 36 -1
11 -6 22 -12 25 -6 4 -9 16 -7 27 2 10 -2 26 -9 34 -6 7 -10 24 -9 37 2 13 -1
24 -6 24 -6 0 -8 9 -5 20 3 12 0 20 -6 20 -7 0 -9 5 -6 10 3 5 2 10 -4 10 -6
0 -8 7 -5 15 4 8 1 21 -5 29 -6 7 -8 16 -4 19 3 4 2 7 -4 7 -5 0 -10 6 -11 13
0 6 -3 21 -6 32 -2 11 -5 26 -5 33 -1 7 -5 11 -10 7 -6 -3 -8 3 -6 13 2 10 -6
39 -17 63 -12 24 -20 47 -20 52 1 4 -2 7 -8 7 -5 0 -9 10 -8 23 1 37 -2 48
-11 43 -5 -4 -7 4 -3 16 3 14 1 19 -6 14 -7 -4 -10 1 -7 14 2 11 0 20 -6 20
-5 0 -9 9 -9 19 0 11 -5 23 -10 26 -6 4 -8 10 -5 15 8 12 -6 41 -16 34 -5 -3
-9 -2 -8 3 1 4 0 13 -1 18 -1 6 -3 15 -4 20 -4 28 -30 92 -45 109 -11 13 -12
17 -2 11 10 -6 12 -4 5 6 -4 8 -9 21 -11 29 -1 8 -7 16 -13 18 -5 2 -8 8 -4
13 3 5 0 9 -6 9 -7 0 -9 7 -6 16 4 10 2 13 -6 8 -8 -5 -9 -2 -5 9 7 18 -16 82
-33 92 -6 4 -8 11 -5 16 4 5 1 9 -5 9 -6 0 -8 5 -5 10 4 6 -1 23 -11 38 -10
15 -17 31 -16 36 5 15 -20 66 -29 61 -4 -3 -6 4 -4 15 2 11 -2 25 -8 32 -7 7
-13 22 -15 33 -2 11 -13 33 -24 49 -11 16 -16 26 -9 22 7 -5 9 -1 5 8 -3 9
-10 16 -16 16 -5 0 -6 4 -3 10 3 5 -1 20 -9 32 -9 12 -16 29 -16 38 0 8 -11
32 -25 53 -14 20 -23 42 -20 47 3 6 1 10 -6 10 -7 0 -9 3 -6 7 4 3 -1 12 -11
20 -10 9 -11 12 -2 7 10 -5 8 1 -5 16 -11 13 -14 20 -7 16 12 -7 12 -4 1 15
-7 13 -12 27 -11 32 1 4 -2 7 -8 7 -6 0 -9 3 -8 8 4 16 -14 52 -24 46 -7 -5
-8 -2 -4 5 5 7 0 21 -11 33 -10 12 -12 18 -6 14 9 -5 11 -2 7 8 -3 9 -10 16
-16 16 -5 0 -7 4 -4 8 3 5 -3 26 -14 48 -10 21 -33 73 -50 114 -18 41 -37 80
-44 85 -6 6 -10 18 -8 29 3 13 0 16 -9 11 -8 -6 -10 -4 -5 4 5 7 0 19 -10 27
-11 9 -13 13 -7 9 8 -4 11 -1 7 9 -3 8 -12 17 -20 20 -10 4 -13 13 -9 25 3 10
-1 23 -10 31 -8 7 -13 16 -10 20 3 5 -2 16 -11 24 -8 9 -12 16 -8 16 4 0 -1 7
-12 16 -10 8 -12 12 -4 8 10 -5 8 1 -5 16 -11 13 -14 20 -7 16 12 -7 12 -4 2
15 -7 13 -18 31 -26 39 -12 15 -14 19 -14 41 0 5 -3 8 -7 6 -5 -3 -9 6 -10 20
0 14 -6 29 -13 33 -6 4 -11 10 -11 14 3 20 0 26 -9 21 -6 -4 -7 1 -3 11 4 12
3 15 -5 10 -8 -5 -10 -1 -5 10 5 13 3 15 -7 9 -9 -5 -11 -4 -6 3 4 7 4 18 -1
25 -4 6 -8 18 -9 25 -2 8 -11 20 -21 29 -10 8 -11 11 -4 7 9 -5 6 4 -7 23 -12
17 -19 33 -16 36 7 7 -22 62 -51 96 -11 13 -14 21 -8 17 9 -5 11 -2 7 8 -3 9
-10 16 -16 16 -5 0 -6 5 -3 10 4 6 -1 23 -11 38 -10 15 -19 33 -20 41 -2 8 -8
17 -14 21 -6 4 -12 13 -13 21 -5 28 -30 79 -37 74 -10 -6 -22 24 -15 36 8 12
-40 100 -50 91 -5 -4 -5 -2 -1 5 9 16 -14 64 -27 56 -6 -3 -7 -1 -3 5 3 6 2
13 -4 17 -6 4 -8 10 -5 15 2 4 -4 18 -14 31 -10 13 -16 30 -13 38 3 9 0 11 -8
6 -10 -6 -12 -4 -7 8 4 10 -4 29 -21 49 -15 18 -21 29 -15 25 9 -6 11 -3 7 7
-3 9 -11 13 -17 9 -6 -4 -7 -1 -3 6 5 7 0 19 -10 27 -11 9 -13 13 -7 9 8 -4
11 -1 7 9 -3 8 -12 17 -20 20 -9 3 -12 11 -9 17 4 6 -4 22 -16 36 -13 15 -18
23 -10 18 9 -5 8 2 -5 24 -10 17 -24 29 -31 27 -7 -3 -15 0 -19 6 -5 7 -2 8 7
3 11 -6 12 -5 2 5 -13 14 -117 24 -143 13z m233 -1638 c80 -28 190 -99 237
-152 128 -145 185 -338 146 -493 -55 -220 -223 -390 -441 -445 -195 -50 -428
42 -563 221 -58 77 -86 143 -110 255 -15 69 -15 82 1 160 68 350 412 564 730
454z"/>
</g>
</svg>
